<?xml version="1.0" standalone="no"?>
<!DOCTYPE svg PUBLIC "-//W3C//DTD SVG 20010904//EN"
 "http://www.w3.org/TR/2001/REC-SVG-20010904/DTD/svg10.dtd">
<svg version="1.0" xmlns="http://www.w3.org/2000/svg"
 width="205.000000pt" height="205.000000pt" viewBox="0 0 205.000000 205.000000"
 preserveAspectRatio="xMidYMid meet">
<metadata>
Created by potrace 1.14, written by Peter Selinger 2001-2017
</metadata>
<g transform="translate(0.000000,205.000000) scale(0.100000,-0.100000)"
fill="#000000" stroke="none">
<path d="M1702 1379 c-23 -21 -83 -136 -120 -229 -12 -30 -35 -69 -50 -85 -15
-17 -42 -49 -61 -73 -18 -23 -46 -49 -62 -58 -27 -14 -29 -13 -29 6 0 11 11
47 25 80 14 33 25 71 25 85 0 51 -55 45 -114 -12 -32 -31 -38 -34 -34 -16 8
29 -17 64 -40 56 -9 -3 -47 -37 -84 -75 -51 -54 -72 -69 -90 -66 -27 4 -27 22
3 85 10 24 19 47 19 53 0 27 -19 3 -58 -75 -94 -184 -186 -175 -102 11 34 75
33 74 21 74 -5 0 -21 -20 -35 -44 -36 -62 -102 -143 -132 -162 -48 -32 -50 -4
-9 101 21 52 35 99 31 103 -4 4 -12 -1 -18 -11 -23 -42 -159 -196 -177 -202
-49 -15 -48 20 5 132 20 41 34 77 31 79 -11 12 -70 6 -106 -10 -21 -10 -58
-41 -82 -68 -24 -28 -61 -69 -82 -92 l-37 -41 21 55 c26 67 49 131 49 136 0
17 -24 -8 -67 -70 -55 -78 -118 -135 -133 -120 -5 5 2 41 16 84 33 100 24 135
-30 114 -19 -7 -186 -199 -186 -213 0 -23 17 -7 90 80 95 114 108 125 121 112
7 -7 4 -28 -11 -69 -29 -84 -32 -110 -15 -124 23 -19 69 4 115 59 l40 46 -23
-59 c-17 -45 -34 -68 -78 -105 -95 -79 -135 -144 -109 -176 19 -23 54 -18 83
11 14 14 42 65 62 112 28 68 46 95 81 125 38 33 44 36 44 18 0 -45 62 -58 105
-21 32 27 45 33 39 17 -3 -9 4 -22 17 -30 19 -14 25 -14 50 -1 16 8 51 41 79
75 27 33 50 58 50 56 0 -3 -7 -24 -15 -48 -35 -98 14 -119 94 -41 l49 47 -5
-32 c-13 -75 49 -85 112 -19 36 37 44 41 59 30 29 -21 70 2 131 72 91 103 110
80 50 -57 -39 -88 -39 -89 -26 -89 5 0 27 30 50 68 59 96 114 152 148 152 19
0 16 -23 -12 -92 -32 -80 -37 -104 -20 -118 22 -18 66 7 121 67 l51 57 -5 -56
c-4 -51 -2 -57 21 -73 22 -14 29 -15 60 -2 19 8 42 25 51 38 9 14 27 24 43 25
16 0 36 4 46 9 14 6 17 2 17 -24 0 -54 58 -68 109 -25 17 14 38 25 48 24 10
-1 26 -2 35 -1 23 1 78 49 78 68 0 10 -11 6 -35 -16 -20 -17 -45 -31 -56 -31
-19 0 -19 0 1 41 14 26 20 55 18 82 -3 37 -6 42 -30 45 -19 2 -31 -3 -42 -21
-21 -31 -31 -109 -17 -134 12 -23 -6 -45 -48 -58 -66 -20 -52 95 22 172 17 18
28 35 25 38 -9 10 -55 -34 -87 -83 -34 -54 -78 -82 -87 -58 -3 8 -1 23 5 35
24 44 8 111 -26 111 -36 0 -61 -112 -32 -146 25 -30 -58 -97 -88 -72 -37 30 2
151 75 236 110 128 147 197 122 227 -17 20 -32 19 -58 -6z m43 -9 c4 -6 -3
-30 -15 -53 -23 -43 -112 -159 -118 -153 -4 4 59 135 88 181 22 36 34 43 45
25z m-1159 -318 c-42 -84 -91 -134 -126 -130 -52 6 -24 100 47 155 43 34 58
41 91 42 22 1 22 0 -12 -67z m1114 34 c0 -13 -5 -38 -11 -55 -9 -24 -14 -29
-20 -19 -19 30 -1 117 22 103 5 -4 9 -16 9 -29z m248 -9 c-6 -52 -37 -105 -49
-85 -21 33 6 128 37 128 14 0 16 -7 12 -43z m-1689 -283 c-30 -71 -51 -103
-72 -110 -30 -10 -41 10 -24 43 16 30 96 113 109 113 4 0 -2 -21 -13 -46z">
</g>
</svg>
